<?xml version="1.0" encoding="utf-8"?>
<!-- Generator: Adobe Illustrator 16.0.0, SVG Export Plug-In . SVG Version: 6.00 Build 0)  -->
<!DOCTYPE svg PUBLIC "-//W3C//DTD SVG 1.1//EN" "http://www.w3.org/Graphics/SVG/1.1/DTD/svg11.dtd">
<svg version="1.1" id="Capa_2" xmlns="http://www.w3.org/2000/svg" xmlns:xlink="http://www.w3.org/1999/xlink" x="0px" y="0px"
	 width="451px" height="688.071px" viewBox="0 0 451 688.071" enable-background="new 0 0 451 688.071" xml:space="preserve">
<g>
	<path fill="none" stroke="#ffffff" stroke-width="3" stroke-miterlimit="10" d="M218.747,98.071
		c-17.334-0.667-60.666-0.668-98,50.666s-30.666,172.626-32,192.646"/>
	<path fill="none" stroke="#ffffff" stroke-width="3" stroke-miterlimit="10" d="M204.747,192.831c0,0-16-30.197-54-17.146
		c-38,13.051-44.667,47.091-46.667,56.738"/>
	<path fill="none" stroke="#ffffff" stroke-width="3" stroke-miterlimit="10" d="M121.413,223.404c0,0-14.666,2.653-21.333,40.993
		s-9.999,84.926-11.333,106.633s-4.667,56.396-4.667,56.396"/>
	<path fill="none" stroke="#ffffff" stroke-width="3" stroke-miterlimit="10" d="M124.747,275.275c0,0-16.001,14.424-17.334,44.624
		c-1.333,30.199,2.001,53.611-4.666,73.619s-17.334,27.234-21.334,68.984c-4,41.748-1,65.031-1,65.031"/>
	<path fill="none" stroke="#ffffff" stroke-width="3" stroke-miterlimit="10" d="M204.747,246.604c0,0,4.666-11.199-12.667-33.199
		s-30.667-23.333-30.667-23.333"/>
	<path fill="none" stroke="#ffffff" stroke-width="3" stroke-miterlimit="10" d="M188.08,223.404c0,0-12.001-20.64-33.667-20.986
		s-22.333,4.692-22.333,4.692"/>
	<path fill="none" stroke="#ffffff" stroke-width="3" stroke-miterlimit="10" d="M214.353,219.663c0,0,4.967-53.288-30.986-58.773
		c-35.953-5.485-51.286,14.796-51.286,14.796"/>
	<path fill="none" stroke="#ffffff" stroke-width="3" stroke-miterlimit="10" d="M218.747,159.948c0,0-12.762-21.211-35.381-24.544
		c-22.619-3.333-23.286,2-23.286,2"/>
	<path fill="none" stroke="#ffffff" stroke-width="3" stroke-miterlimit="10" d="M213.53,279.46
		c-6.406-4.691-12.273-1.089-12.273,3.28c0,4.37,4.153,4.792,9.969,4.788C217.041,287.525,221.233,285.102,213.53,279.46z"/>
	<path fill="none" stroke="#ffffff" stroke-width="3" stroke-miterlimit="10" d="M234.936,279.46
		c6.406-4.691,12.273-1.089,12.273,3.28c0,4.37-4.152,4.792-9.969,4.788C231.425,287.525,227.232,285.102,234.936,279.46z"/>
	<path fill="none" stroke="#ffffff" stroke-width="3" stroke-miterlimit="10" d="M194.079,289.325c0,0-1-5.754,7.178-17.717
		c8.178-11.963,10.322-17.766,21.822-17.766c12.26,0,12.26,0.254,24.13,17.741s4.87,16.112,4.87,16.112"/>
	<path fill="none" stroke="#ffffff" stroke-width="3" stroke-miterlimit="10" d="M201.257,253.843c0,0-6.678,9.719-32.678,22.224
		c-26,12.505-35.5,24.974-41,43.989s-4.332,25.004-6.166,41.76"/>
	<path fill="none" stroke="#ffffff" stroke-width="3" stroke-miterlimit="10" d="M212.079,305.167c0,0-20.992-5.809-38.746,10.298
		s-24.254,26.312-25.254,50.959c-1,24.646-3,48.646-8.5,57.646"/>
	<path fill="none" stroke="#ffffff" stroke-width="3" stroke-miterlimit="10" d="M147.579,333.51c0,0-15.499,16.933-15.499,58.593
		c0,30.552-1.833,47.919-10.667,62.37c-8.834,14.453-20.498,28.904-18.666,59.615c1.832,30.709,2.332,54.066-3.668,67.076"/>
	<path fill="none" stroke="#ffffff" stroke-width="3" stroke-miterlimit="10" d="M168.079,338.427c0,0-9.498,19.973-7.999,52.57
		c1.499,32.596-8.501,60.271-13.501,82.184c-5,21.914-8.5,30.439-4,57.988c4.5,27.551,3,42.549,3,42.549"/>
	<path fill="none" stroke="#ffffff" stroke-width="3" stroke-miterlimit="10" d="M161.413,254.806
		c-2.334,0.766-18.673,9.345-33.334,28.006c-9.5,12.092-13.569,30.253-13.069,42.753s0,12.907,0,12.907"/>
	<path fill="none" stroke="#ffffff" stroke-width="3" stroke-miterlimit="10" d="M147.579,238.42c0,0-23.221-1.88-32.61,16.386
		c-9.389,18.266-8.89,31.853-8.89,31.853"/>
	
		<line fill="none" stroke="#ffffff" stroke-width="3" stroke-miterlimit="10" x1="224.085" y1="299.906" x2="224.085" y2="315.465"/>
	<path fill="none" stroke="#ffffff" stroke-width="3" stroke-miterlimit="10" d="M174.136,241.367
		c-0.446,1.472-0.535,3.073-0.171,4.681c1.12,4.951,6.042,8.056,10.993,6.936c4.949-1.12,8.055-6.041,6.935-10.992
		c-0.295-1.304-0.858-2.473-1.612-3.479c-1.178-0.107-2.41-0.157-3.715-0.099C181.651,238.63,177.543,239.772,174.136,241.367z"/>
	<path fill="none" stroke="#ffffff" stroke-width="3" stroke-miterlimit="10" d="M196.079,241.571c0,0,1.5-6.854-20.25-0.927
		c-21.75,5.927-32.25,13.257-40.75,19.842"/>
	<path fill="none" stroke="#ffffff" stroke-width="3" stroke-miterlimit="10" d="M225.617,98.071
		c17.334-0.667,60.666-0.668,98,50.666c37.333,51.334,30.666,172.626,32,192.646"/>
	<path fill="none" stroke="#ffffff" stroke-width="3" stroke-miterlimit="10" d="M239.617,192.831c0,0,16-30.197,54-17.146
		c38,13.051,44.668,47.091,46.668,56.738"/>
	<path fill="none" stroke="#ffffff" stroke-width="3" stroke-miterlimit="10" d="M322.951,223.404c0,0,14.666,2.653,21.334,40.993
		c6.666,38.34,9.998,84.926,11.332,106.633s4.667,56.396,4.667,56.396"/>
	<path fill="none" stroke="#ffffff" stroke-width="3" stroke-miterlimit="10" d="M319.617,275.275c0,0,16.002,14.424,17.334,44.624
		c1.334,30.199-2,53.611,4.666,73.619c6.668,20.008,17.334,27.234,21.333,68.984c4,41.748,0,65.031,0,65.031"/>
	<path fill="none" stroke="#ffffff" stroke-width="3" stroke-miterlimit="10" d="M239.617,246.604c0,0-4.666-11.199,12.667-33.199
		s30.667-23.333,30.667-23.333"/>
	<path fill="none" stroke="#ffffff" stroke-width="3" stroke-miterlimit="10" d="M256.284,223.404c0,0,12.001-20.64,33.667-20.986
		s22.334,4.692,22.334,4.692"/>
	<path fill="none" stroke="#ffffff" stroke-width="3" stroke-miterlimit="10" d="M230.012,219.663c0,0-4.967-53.288,30.986-58.773
		s51.287,14.796,51.287,14.796"/>
	<path fill="none" stroke="#ffffff" stroke-width="3" stroke-miterlimit="10" d="M225.617,159.948c0,0,12.762-21.211,35.381-24.544
		s23.286,2,23.286,2"/>
	<path fill="none" stroke="#ffffff" stroke-width="3" stroke-miterlimit="10" d="M243.107,253.843c0,0,6.678,9.719,32.678,22.224
		c26,12.505,35.5,24.974,41,43.989s4.332,25.004,6.166,41.76"/>
	<path fill="none" stroke="#ffffff" stroke-width="3" stroke-miterlimit="10" d="M232.285,305.167c0,0,20.992-5.809,38.746,10.298
		s24.254,26.312,25.254,50.959c1,24.646,3,48.646,8.5,57.646"/>
	<path fill="none" stroke="#ffffff" stroke-width="3" stroke-miterlimit="10" d="M296.785,333.51c0,0,15.5,16.933,15.5,58.593
		c0,30.552,1.832,47.919,10.666,62.37c8.834,14.453,20.498,28.904,18.666,59.615c-1.832,30.709-2.332,54.066,3.668,67.076"/>
	<path fill="none" stroke="#ffffff" stroke-width="3" stroke-miterlimit="10" d="M276.285,338.427c0,0,9.498,19.973,7.999,52.57
		c-1.499,32.596,8.501,60.271,13.501,82.184c5,21.914,8.5,30.439,4,57.988c-4.5,27.551-3,42.549-3,42.549"/>
	<path fill="none" stroke="#ffffff" stroke-width="3" stroke-miterlimit="10" d="M282.951,254.806
		c2.334,0.766,18.673,9.345,33.334,28.006c9.5,12.092,13.57,30.253,13.07,42.753s0,12.907,0,12.907"/>
	<path fill="none" stroke="#ffffff" stroke-width="3" stroke-miterlimit="10" d="M296.785,238.42c0,0,23.221-1.88,32.611,16.386
		c9.389,18.266,8.889,31.853,8.889,31.853"/>
	<path fill="none" stroke="#ffffff" stroke-width="3" stroke-miterlimit="10" d="M270.229,241.367
		c0.446,1.472,0.535,3.073,0.172,4.681c-1.121,4.951-6.043,8.056-10.992,6.936c-4.949-1.12-8.057-6.041-6.936-10.992
		c0.295-1.304,0.857-2.473,1.611-3.479c1.178-0.107,2.41-0.157,3.715-0.099C262.713,238.63,266.82,239.772,270.229,241.367z"/>
	<path fill="none" stroke="#ffffff" stroke-width="3" stroke-miterlimit="10" d="M248.285,241.571c0,0-1.5-6.854,20.25-0.927
		c21.75,5.927,32.25,13.257,40.75,19.842"/>
	<path fill="none" stroke="#ffffff" stroke-width="3" stroke-miterlimit="10" d="M214.585,296.198c0,0-17.213-8.016-38.756-0.934
		s-28.25,18.807-28.25,18.807"/>
	<path fill="none" stroke="#ffffff" stroke-width="3" stroke-miterlimit="10" d="M231.777,296.198c0,0,17.214-8.016,38.757-0.934
		s28.25,18.807,28.25,18.807"/>
	<path fill="none" stroke="#ffffff" stroke-width="3" stroke-miterlimit="10" d="M224.257,318.085
		c-19.451-0.316-49.69,5.555-50.545,11.759c-0.854,6.204,24.442,10.302,55.903,8.732c31.462-1.57,45.763-4.941,42.912-9.21
		C265.445,318.757,224.257,318.085,224.257,318.085z"/>
	<path fill="none" stroke="#ffffff" stroke-width="3" stroke-miterlimit="10" d="M175.836,330.409
		c0.173-2.823,34.593-2.573,49.687-2.548c15.093,0.027,39.021,2.313,43.025,1.664"/>
	<path fill="none" stroke="#ffffff" stroke-width="3" stroke-miterlimit="10" d="M194.04,349.995c0,0-5.25,8.359-5.96,47.305
		c-0.71,38.947,7.212,55.301,1.333,85.496c-5.879,30.193-11.01,63.857-6.047,87.602c4.963,23.74,6.047,47.016,6.047,47.016"/>
	<path fill="none" stroke="#ffffff" stroke-width="3" stroke-miterlimit="10" d="M252.607,349.995c0,0,5.25,8.359,5.959,47.305
		c0.711,38.947-7.211,55.301-1.332,85.496c5.879,30.193,11.01,63.857,6.047,87.602c-4.963,23.742-6.047,47.016-6.047,47.016"/>
	<path fill="none" stroke="#ffffff" stroke-width="3" stroke-miterlimit="10" d="M223.287,362.274c0,0,6.055,45.033,2.33,70.195
		c-3.725,25.164-6.961,66.051-3.425,93.73c3.536,27.678,3.425,105.049,3.425,105.049"/>
	<path fill="none" stroke="#ffffff" stroke-width="3" stroke-miterlimit="10" d="M238.977,365.232c0,0,5.688,24.522,4.131,48.083
		c-1.557,23.559-6.707,51.867-4.131,77.027c2.574,25.162,4.4,35.855,4.4,35.855"/>
	<path fill="none" stroke="#ffffff" stroke-width="3" stroke-miterlimit="10" d="M209.491,431.19c0,0,0.894,23.609-1.983,54.955
		c-2.877,31.348-2.267,42.969,1.983,63.432s2.588,34.318,2.588,34.318"/>
	<path fill="none" stroke="#ffffff" stroke-width="3" stroke-miterlimit="10" d="M173.333,369.092c0,0-0.132,18.146,0,44.225
		c0.132,26.074-15.69,51.236-15.69,77.656c0,26.418,2.438,54.934,2.438,54.934"/>
	
		<line fill="none" stroke="#ffffff" stroke-width="3" stroke-miterlimit="10" x1="369.411" y1="476.766" x2="440.745" y2="494.842"/>
	<line fill="none" stroke="#ffffff" stroke-width="3" stroke-miterlimit="10" x1="74.591" y1="476.766" x2="3.257" y2="494.842"/>
	<path fill="none" stroke="#ffffff" stroke-width="3" stroke-miterlimit="10" d="M114.969,396.237c0,0,1.101,17.713-8.895,41.773
		c-9.996,24.061-17.659,37.449-17.327,58.754c0.332,21.307,0,31.236,0,31.236"/>
	<path fill="none" stroke="#ffffff" stroke-width="3" stroke-miterlimit="10" d="M329.396,402.95c0,0,3.869,15.578,12.775,37.85
		c8.906,22.273,13.982,35.291,13.443,65.281c-0.537,29.99,0.039,49.99,0.039,49.99"/>
	<path fill="none" stroke="#ffffff" stroke-width="3" stroke-miterlimit="10" d="M317.539,479.51c0,0,8.285,5.49,5.412,52.025
		c-2.871,46.535,0,75.535,0,75.535"/>
	<path fill="none" stroke="#ffffff" stroke-width="3" stroke-miterlimit="10" d="M272.884,450.37c0,0-0.393,24.477,3.401,58.59
		c3.794,34.111,8.538,52.762,6.666,77.439c-1.872,24.676,1.333,31.014,1.333,31.014"/>
	<path fill="none" stroke="#ffffff" stroke-width="3" stroke-miterlimit="10" d="M132.08,465.596c0,0-11.333,25.035-10.667,57.256
		s-6.408,84.221-6.408,84.221"/>
</g>
</svg>
