<?xml version="1.0" encoding="utf-8"?>
<!-- Generator: Adobe Illustrator 16.0.0, SVG Export Plug-In . SVG Version: 6.00 Build 0)  -->
<!DOCTYPE svg PUBLIC "-//W3C//DTD SVG 1.1//EN" "http://www.w3.org/Graphics/SVG/1.1/DTD/svg11.dtd">
<svg version="1.1" id="Capa_2" xmlns="http://www.w3.org/2000/svg" xmlns:xlink="http://www.w3.org/1999/xlink" x="0px" y="0px"
	 width="451px" height="688.071px" viewBox="0 0 451 688.071" enable-background="new 0 0 451 688.071" xml:space="preserve">
<g>
	<path fill="none" stroke="#ffffff" stroke-width="3" stroke-miterlimit="10" d="M353.725,318.341c0,0-3.811,63.828-13.61,107.205
		c-9.799,43.379-29.943,64.549-59.343,79.312"/>
	<path fill="none" stroke="#ffffff" stroke-width="3" stroke-miterlimit="10" d="M256.109,365.836c0,0,14.688,15.156,7.611,26.324
		c-7.078,11.166-15.779,4.703-15.779,4.703"/>
	<path fill="none" stroke="#ffffff" stroke-width="3" stroke-miterlimit="10" d="M255.02,394.854c0,0-0.688-6.018-10.688,0
		s-17.078,6.186-17.078,6.186"/>
	<path fill="none" stroke="#ffffff" stroke-width="3" stroke-miterlimit="10" d="M300.752,425.545c0,0-4.025-17.623-39.85-53.543"/>
	<path fill="none" stroke="#ffffff" stroke-width="3" stroke-miterlimit="10" d="M256.795,311.04c0,0,16.736-17.966,31.436-12.521
		c14.701,5.445,19.601,15.244,29.398,21.777"/>
	<path fill="none" stroke="#ffffff" stroke-width="3" stroke-miterlimit="10" d="M256.795,304.937c0,0,17.783-20.848,33.404-14.53
		c15.621,6.318,17.016,17.689,27.43,25.271"/>
	<path fill="none" stroke="#ffffff" stroke-width="3" stroke-miterlimit="10" d="M260.902,325.195c0,0,2.971,4.513,26.309,12.327"/>
	<path fill="none" stroke="#ffffff" stroke-width="3" stroke-miterlimit="10" d="M247.941,282.938
		c0.945-6.31,12.504-21.024,26.115-19.391c13.61,1.633,15.452-0.384,29.416,7.146c14.155,7.632,21.231,12.835,21.231,21.653
		c0,5.145-23.953-13.879-36.476-14.396C275.158,277.412,244.762,304.185,247.941,282.938z"/>
	<path fill="none" stroke="#ffffff" stroke-width="3" stroke-miterlimit="10" d="M288.23,298.519
		c-4.875-1.806-9.974-1.029-14.611,0.805c-1.148,1.835-1.824,3.997-1.824,6.321c0,6.588,5.342,11.929,11.93,11.929
		s11.93-5.341,11.93-11.929c0-1.406-0.258-2.751-0.704-4.004C292.943,300.5,290.73,299.444,288.23,298.519z"/>
	<path fill="none" stroke="#ffffff" stroke-width="3" stroke-miterlimit="10" d="M378.223,337.522c0,0-8.709,25.555-10.344,37.646
		c-1.633,12.09-9.25,36.533-22.047,19.686"/>
	<path fill="none" stroke="#ffffff" stroke-width="3" stroke-miterlimit="10" d="M368.424,337.522c0,0-0.271,15.686-6.396,24.545
		s-11.623-1.492-10.851-9.312"/>
	<path fill="none" stroke="#ffffff" stroke-width="3" stroke-miterlimit="10" d="M359.764,329.006c0,0,2.533,10.587-7.912,14.004"/>
	<path fill="none" stroke="#ffffff" stroke-width="3" stroke-miterlimit="10" d="M245.266,401.038c0,0,6.859,4.188,25.656,12.082
		s25.402,8.805,29.975,16.518c4.57,7.711,0.646,15.691-4.758,12.52c-5.404-3.176-7.715,2.629-11.131,0
		c-3.418-2.631-8.498-0.453-14.594-3.176s-7.111,0-12.191-1.09c-5.082-1.088-6.098,7.982-12.957,4.266
		c-6.856-3.721-14.477,4.645-15.494,2.641"/>
	<path fill="none" stroke="#ffffff" stroke-width="3" stroke-miterlimit="10" d="M265.646,445.229c0,0-8.994,13.352-38.394,13.352"
		/>
	<path fill="none" stroke="#ffffff" stroke-width="3" stroke-miterlimit="10" d="M103.131,323.562c0,0,3.811,58.606,13.611,101.983
		c9.799,43.379,29.943,64.549,59.342,79.312"/>
	<path fill="none" stroke="#ffffff" stroke-width="3" stroke-miterlimit="10" d="M154.852,476.391c0,0,15.244,33.365,42.467,37.178
		c27.221,3.811,22.32,2.178,22.32,2.178h17.578c0,0-4.9,1.633,22.32-2.178c27.223-3.812,42.467-37.178,42.467-37.178"/>
	<path fill="none" stroke="#ffffff" stroke-width="3" stroke-miterlimit="10" d="M200.748,365.836c0,0-14.689,15.156-7.613,26.324
		c7.078,11.166,15.779,4.703,15.779,4.703"/>
	<path fill="none" stroke="#ffffff" stroke-width="3" stroke-miterlimit="10" d="M201.836,394.854c0,0,0.688-6.018,10.688,0
		s17.078,6.186,17.078,6.186"/>
	<path fill="none" stroke="#ffffff" stroke-width="3" stroke-miterlimit="10" d="M156.104,425.545c0,0,4.027-17.623,39.852-53.543"
		/>
	<path fill="none" stroke="#ffffff" stroke-width="3" stroke-miterlimit="10" d="M200.061,311.04c0,0-16.736-17.966-31.436-12.521
		s-19.6,15.244-29.398,21.777"/>
	<path fill="none" stroke="#ffffff" stroke-width="3" stroke-miterlimit="10" d="M200.061,304.937c0,0-17.783-20.848-33.404-14.53
		c-15.619,6.317-17.016,17.689-27.43,25.271"/>
	<path fill="none" stroke="#ffffff" stroke-width="3" stroke-miterlimit="10" d="M195.955,325.195c0,0-2.973,4.513-26.311,12.327"/>
	<path fill="none" stroke="#ffffff" stroke-width="3" stroke-miterlimit="10" d="M208.914,282.938
		c-0.945-6.31-12.504-21.024-26.115-19.391c-13.611,1.633-15.451-0.384-29.416,7.146c-14.156,7.632-21.232,12.835-21.232,21.653
		c0,5.145,23.953-13.879,36.475-14.396C181.697,277.412,212.092,304.185,208.914,282.938z"/>
	<path fill="none" stroke="#ffffff" stroke-width="3" stroke-miterlimit="10" d="M168.625,298.519
		c4.875-1.806,9.973-1.029,14.611,0.805c1.148,1.835,1.824,3.997,1.824,6.321c0,6.588-5.34,11.929-11.93,11.929
		c-6.586,0-11.93-5.341-11.93-11.929c0-1.406,0.258-2.751,0.703-4.004C163.912,300.5,166.123,299.444,168.625,298.519z"/>
	<path fill="none" stroke="#ffffff" stroke-width="3" stroke-miterlimit="10" d="M78.633,337.522c0,0,8.709,25.555,10.344,37.646
		c1.633,12.09,9.25,36.533,22.047,19.686"/>
	<path fill="none" stroke="#ffffff" stroke-width="3" stroke-miterlimit="10" d="M88.432,337.522c0,0,0.271,15.686,6.396,24.545
		s11.621-1.492,10.85-9.312"/>
	<path fill="none" stroke="#ffffff" stroke-width="3" stroke-miterlimit="10" d="M97.09,329.006c0,0-2.531,10.587,7.916,14.004"/>
	<path fill="none" stroke="#ffffff" stroke-width="3" stroke-miterlimit="10" d="M213.277,401.038c0,0-7.059,4.188-26.406,12.082
		c-19.347,7.895-26.146,8.805-30.854,16.518c-4.705,7.711-0.664,15.691,4.898,12.52c5.561-3.176,7.941,2.629,11.457,0
		c3.516-2.631,8.746-0.453,15.021-3.176c6.273-2.723,7.318,0,12.549-1.09c5.231-1.088,6.275,7.982,13.334,4.266
		c7.061-3.721,14.904,4.645,15.949,2.641"/>
	<path fill="none" stroke="#ffffff" stroke-width="3" stroke-miterlimit="10" d="M191.209,445.229c0,0,8.994,13.352,38.393,13.352"
		/>
	<path fill="none" stroke="#ffffff" stroke-width="3" stroke-miterlimit="10" d="M212.523,504.856c0,0,0.756-3.32,11.367-3.32h9.074
		c10.609,0,11.367,3.32,11.367,3.32"/>
	<path fill="none" stroke="#ffffff" stroke-width="3" stroke-miterlimit="10" d="M248.428,289.214
		c0.566,0.777-8.107,8.822-7.291,19.679"/>
	<path fill="none" stroke="#ffffff" stroke-width="3" stroke-miterlimit="10" d="M208.865,289.214
		c-0.566,0.777,8.107,8.822,7.291,19.679"/>
	<path fill="none" stroke="#ffffff" stroke-width="3" stroke-miterlimit="10" d="M144.502,178.947c0,0-25.59,14.153-28.312,26.131
		c-2.721,11.978-6.531,38.108-2.721,49.543c3.811,11.434,4.908,41.441-2.445,53.658c-7.354,12.218-3.543,16.573-20.42,21.474
		c-16.879,4.899-17.967,13.61-17.422,17.966"/>
	<path fill="none" stroke="#ffffff" stroke-width="3" stroke-miterlimit="10" d="M144.502,239.176c0,0,10.283-13.067,68.023-13.61"
		/>
	<path fill="none" stroke="#ffffff" stroke-width="3" stroke-miterlimit="10" d="M310.551,239.176
		c-3.266,1.089-22.93-7.779-62.096-7.973c-39.166-0.194-39.166-0.193-39.166-0.193"/>
	<path fill="none" stroke="#ffffff" stroke-width="3" stroke-miterlimit="10" d="M300.752,220.665c0,0-11.648-5.445-39.85-4.899
		c-28.203,0.545-35.826,2.431-35.826,2.431"/>
	<path fill="none" stroke="#ffffff" stroke-width="3" stroke-miterlimit="10" d="M108.51,492.848
		c-8.199-6.564-11.4-14.668-10.311-34.268c1.088-19.6-14.154-38.111-28.854-51.447c-14.701-13.336-17.422-49.815-15.789-64.124
		c1.633-14.306-11.434-24.348-14.699-49.781c-3.268-25.433,1.088-38.265,7.076-54.053c5.99-15.789-2.721-58.254,10.889-69.688
		c13.611-11.434,16.334-18.51,23.854-38.926c7.521-20.416,38.979-36.05,41.156-36.05c0,0,32.791-28.651,60.967-26.414
		c28.176,2.238,52.854-9.454,91.258,4.734c39.992,14.776,57.904,29.691,57.904,29.691c2.178,0,36.135,7.622,43.656,28.038
		c7.52,20.416,10.242,27.492,23.854,38.926c13.612,11.434,4.9,53.898,10.89,69.688c5.987,15.788,10.342,28.62,7.075,54.053
		c-3.266,25.434-16.332,35.476-14.698,49.781c1.635,14.308-1.088,50.787-15.787,64.125c-14.701,13.336-29.945,31.848-28.855,51.445
		c1.09,19.6-2.108,27.703-10.311,34.268"/>
	
		<line fill="none" stroke="#ffffff" stroke-width="3" stroke-miterlimit="10" x1="123.646" y1="448.499" x2="123.646" y2="488.284"/>
	
		<line fill="none" stroke="#ffffff" stroke-width="3" stroke-miterlimit="10" x1="331.961" y1="448.499" x2="331.961" y2="488.284"/>
	<path fill="none" stroke="#ffffff" stroke-width="3" stroke-miterlimit="10" d="M300.166,615.592c0,0-30.805-48.031-43.395-62.781
		c-5.318-6.229-28.232-21.137-28.232-21.137s-4.943-3.053,14.02-3.053c18.961,0,84.705-32.553,84.705-35.203"/>
	<path fill="none" stroke="#ffffff" stroke-width="3" stroke-miterlimit="10" d="M192.564,553.042c0,0,3.562,12.057,12.393,26.041
		c5.334,8.441,7.518,10.709,14.541,8.494c7.025-2.217,7.025-2.217,13.037-0.734c10.031,2.475,10.889-1.867,15.533-10.822
		c6.053-11.676,9.471-23.209,9.471-23.209"/>
	<line fill="none" stroke="#ffffff" stroke-width="3" stroke-miterlimit="10" x1="238.066" y1="587.485" x2="247.23" y2="660.338"/>
	
		<line fill="none" stroke="#ffffff" stroke-width="3" stroke-miterlimit="10" x1="213.061" y1="587.485" x2="203.896" y2="660.338"/>
	<path fill="none" stroke="#ffffff" stroke-width="3" stroke-miterlimit="10" d="M327.264,489.053c0,0,9.418,4.125,11.14,7.568
		c1.721,3.439-52.22,154.842-56.218,166.197"/>
	
		<line fill="none" stroke="#ffffff" stroke-width="3" stroke-miterlimit="10" x1="338.402" y1="496.622" x2="442.762" y2="518.354"/>
	<path fill="none" stroke="#ffffff" stroke-width="3" stroke-miterlimit="10" d="M150.281,615.592c0,0,30.172-48.031,42.504-62.781
		c5.211-6.229,27.652-21.137,27.652-21.137s4.842-3.053-13.73-3.053c-18.574,0-82.969-32.553-82.969-35.203"/>
	<path fill="none" stroke="#ffffff" stroke-width="3" stroke-miterlimit="10" d="M123.738,489.053c0,0-9.418,4.125-11.139,7.568
		c-1.719,3.439,52.219,154.842,56.219,166.197"/>
	<line fill="none" stroke="#ffffff" stroke-width="3" stroke-miterlimit="10" x1="112.6" y1="496.622" x2="8.238" y2="518.354"/>
	
		<line fill="none" stroke="#ffffff" stroke-width="3" stroke-miterlimit="10" x1="220.438" y1="531.674" x2="228.539" y2="531.674"/>
	<path fill="none" stroke="#ffffff" stroke-width="3" stroke-miterlimit="10" d="M153.949,178.947
		c30.006,5.002,88.471-7.127,117.846-13.953c38.521-8.95,33.023,7.233,43.6,13.953c0,0,25.589,14.153,28.312,26.131
		s6.533,38.108,2.723,49.543c-3.812,11.434-4.91,41.441,2.443,53.658c7.354,12.218,3.545,16.573,20.422,21.474
		c16.877,4.899,17.967,13.61,17.422,17.966"/>
</g>
</svg>
