<?xml version="1.0" encoding="utf-8"?>
<!-- Generator: Adobe Illustrator 16.0.0, SVG Export Plug-In . SVG Version: 6.00 Build 0)  -->
<!DOCTYPE svg PUBLIC "-//W3C//DTD SVG 1.1//EN" "http://www.w3.org/Graphics/SVG/1.1/DTD/svg11.dtd">
<svg version="1.1" id="Capa_2" xmlns="http://www.w3.org/2000/svg" xmlns:xlink="http://www.w3.org/1999/xlink" x="0px" y="0px"
	 width="451px" height="688.071px" viewBox="0 0 451 688.071" enable-background="new 0 0 451 688.071" xml:space="preserve">
<g>
	
		<line fill="none" stroke="#222222" stroke-width="3" stroke-miterlimit="10" x1="124.983" y1="455.334" x2="124.983" y2="475.725"/>
	<path fill="none" stroke="#222222" stroke-width="3" stroke-miterlimit="10" d="M267.439,300.19
		c-0.353,5.441,3.521,10.939,9.601,11.705c6.076,0.77,11.701-3.236,12.562-10.051"/>
	<path fill="none" stroke="#222222" stroke-width="3" stroke-miterlimit="10" d="M93.302,274.556c0,0,2.961,78.312,8.842,111.707
		c5.877,33.396,9.801,57.747,36.262,85.901c26.461,28.156,49.982,50.797,82.326,50.824h6.364
		c32.344-0.027,55.864-20.668,82.325-48.824c26.461-28.154,30.383-36.832,36.262-70.23c5.883-33.395,7.844-130.972,7.844-130.972"/>
	<path fill="none" stroke="#222222" stroke-width="3" stroke-miterlimit="10" d="M203.2,369.133c0,0-10.059,7.726-7.666,19.365
		c0.977,4.754,4.332,7.168,9.666,6.502s11.281,9.75,17.262,10.816c2.74,0.486,5.82,0.99,9.33,0
		c5.844-1.654,10.926-11.482,16.26-10.816s8.689-1.748,9.669-6.502c2.393-11.642-6.669-19.365-6.669-19.365"/>
	<circle fill="none" stroke="#222222" stroke-width="3" stroke-miterlimit="10" cx="283.068" cy="325.2" r="37.086"/>
	<path fill="none" stroke="#222222" stroke-width="3" stroke-miterlimit="10" d="M247.652,316.456c0,0-3.396-1-4.532,4.307
		c-1.136,5.307-2.312,15.645,2.877,16.506c1.479,0.246,2.578-0.402,2.578-0.402"/>
	<path fill="none" stroke="#222222" stroke-width="3" stroke-miterlimit="10" d="M255.034,307.294c0,0,6.719-8.219,23.692-8.219
		c13.483,0,22.44,10.906,22.44,10.906"/>
	<path fill="none" stroke="#222222" stroke-width="3" stroke-miterlimit="10" d="M256.708,301.841c0,0,6.719-8.219,23.692-8.219
		c13.483,0,22.44,10.906,22.44,10.906"/>
	<path fill="none" stroke="#222222" stroke-width="3" stroke-miterlimit="10" d="M320.155,325.2c0,0,7.785,3.172,10.785-5.145
		c3-8.318,25-57.652,25-57.652"/>
	<circle fill="none" stroke="#222222" stroke-width="3" stroke-miterlimit="10" cx="249.863" cy="325.786" r="2.715"/>
	<circle fill="none" stroke="#222222" stroke-width="3" stroke-miterlimit="10" cx="315.825" cy="325.786" r="2.715"/>
	<path fill="none" stroke="#222222" stroke-width="3" stroke-miterlimit="10" d="M352.524,275.274
		c0.084-0.871,0.418-16.537,12.084-18.203c11.666-1.668,12.666,17,10.666,28s-5.332,15.332-5.666,23
		c-0.334,7.666-2.268,35.045-5.303,43.355c-3.031,8.311-4.031,7.977-6.365,14.977c-2.332,7-10.025,12.027-9.938,11.006"/>
	<path fill="none" stroke="#222222" stroke-width="3" stroke-miterlimit="10" d="M371.274,269.737c0,0-11.801,2.34-15.334,13
		c-3.533,10.66-3.666,18.822,0,27.244c3.668,8.422,2.334,12.947,0,18.518c-2.332,5.572-2.332,5.572-2.332,5.572"/>
	<path fill="none" stroke="#222222" stroke-width="3" stroke-miterlimit="10" d="M353.239,339.071c0,0,5.334,5.508,9.018-1.746
		c3.686-7.254,0.354-22.883,1.354-31.234c1-8.354,7.998-15.354,7.666-24.02c-0.334-8.668-4.334-10.334-4.334-10.334"/>
	<path fill="none" stroke="#222222" stroke-width="3" stroke-miterlimit="10" d="M182.958,300.19
		c0.352,5.441-3.52,10.939-9.598,11.705c-6.078,0.77-11.701-3.236-12.562-10.051"/>
	<circle fill="none" stroke="#222222" stroke-width="3" stroke-miterlimit="10" cx="167.331" cy="325.2" r="37.086"/>
	<path fill="none" stroke="#222222" stroke-width="3" stroke-miterlimit="10" d="M202.747,316.456c0,0,3.396-1,4.533,4.307
		c1.135,5.307,2.312,15.645-2.877,16.506c-1.479,0.246-2.578-0.402-2.578-0.402"/>
	<path fill="none" stroke="#222222" stroke-width="3" stroke-miterlimit="10" d="M195.364,307.294c0,0-6.719-8.219-23.693-8.219
		c-13.482,0-22.439,10.906-22.439,10.906"/>
	<path fill="none" stroke="#222222" stroke-width="3" stroke-miterlimit="10" d="M193.69,301.841c0,0-6.719-8.219-23.693-8.219
		c-13.482,0-22.439,10.906-22.439,10.906"/>
	<path fill="none" stroke="#222222" stroke-width="3" stroke-miterlimit="10" d="M156.571,289.706c0,0-9.029,0.428-16.219-2.279
		c-7.19-2.707-14.768-12.037-7.506-12.4c9.379-0.469,31.426,5.232,50.135,11.631c18.709,6.4,22.061,9.98,22.061,9.98
		s4.168,7.447-4.506,5.473c-5.172-1.178-7.484-3.943-7.484-3.943"/>
	<path fill="none" stroke="#222222" stroke-width="3" stroke-miterlimit="10" d="M294.471,289.706c0,0,9.028,0.428,16.22-2.279
		c7.188-2.707,14.768-12.037,7.506-12.4c-9.379-0.469-31.427,5.232-50.136,11.631c-18.709,6.4-22.062,9.98-22.062,9.98
		s-4.168,7.447,4.506,5.473c5.17-1.178,7.483-3.943,7.483-3.943"/>
	<path fill="none" stroke="#222222" stroke-width="3" stroke-miterlimit="10" d="M130.245,325.2c0,0-8.896,3.172-12.324-5.145
		c-3.428-8.318-28.566-57.652-28.566-57.652"/>
	<circle fill="none" stroke="#222222" stroke-width="3" stroke-miterlimit="10" cx="200.536" cy="325.786" r="2.715"/>
	<circle fill="none" stroke="#222222" stroke-width="3" stroke-miterlimit="10" cx="134.575" cy="325.786" r="2.715"/>
	<path fill="none" stroke="#222222" stroke-width="3" stroke-miterlimit="10" d="M92.876,275.274
		c-0.084-0.871-0.418-16.537-12.084-18.203c-11.666-1.668-12.666,17-10.666,28s5.332,15.332,5.666,23
		c0.334,7.666,2.266,35.045,5.301,43.355c3.033,8.311,4.033,7.977,6.367,14.977c2.332,7,13.025,9.027,12.936,8.006"/>
	<path fill="none" stroke="#222222" stroke-width="3" stroke-miterlimit="10" d="M74.126,269.737c0,0,11.799,2.34,15.334,13
		c3.533,10.66,3.666,18.822,0,27.244c-3.668,8.422-2.334,12.947,0,18.518c2.332,5.572,2.332,5.572,2.332,5.572"/>
	<path fill="none" stroke="#222222" stroke-width="3" stroke-miterlimit="10" d="M92.161,339.071c0,0-5.334,5.508-9.018-1.746
		c-3.684-7.254-0.352-22.883-1.352-31.234c-1-8.354-7.998-15.354-7.666-24.02c0.334-8.668,4.334-10.334,4.334-10.334"/>
	<path fill="none" stroke="#222222" stroke-width="3" stroke-miterlimit="10" d="M204.417,323.071c0,0,2.637-9.871,22.315-9.871
		c12.203,0,19.149,6.723,19.149,6.723"/>
	<path fill="none" stroke="#222222" stroke-width="3" stroke-miterlimit="10" d="M204.417,325.683c0,0,2.637-9.871,22.315-9.871
		c12.203,0,19.149,6.723,19.149,6.723"/>
	<path fill="none" stroke="#222222" stroke-width="3" stroke-miterlimit="10" d="M102.274,286.392c0,0,16-32.861,16-40.592
		c0-7.729-10-41.729,0-65.062c10-23.333,21.246-42.859,30.957-46.43c9.709-3.57,28.746,16.43,77.895,16.43"/>
	<path fill="none" stroke="#222222" stroke-width="3" stroke-miterlimit="10" d="M345.495,286.392c0,0-16-32.861-16-40.592
		c0-7.729,10-41.729,0-65.062c-10-23.333-21.246-42.859-30.957-46.43c-9.709-3.57-28.748,16.43-77.895,16.43"/>
	<path fill="none" stroke="#222222" stroke-width="3" stroke-miterlimit="10" d="M242.143,362.739c0,0-3.201,10.504-2.867,17.918
		s0.427,7.197,0.427,7.197"/>
	<path fill="none" stroke="#222222" stroke-width="3" stroke-miterlimit="10" d="M79.677,258.353
		c0-98.135,63.023-177.689,140.77-177.689c77.745,0,140.77,79.555,140.77,177.689"/>
	<g>
		<path fill="none" stroke="#222222" stroke-width="3" stroke-miterlimit="10" d="M102.659,288.722c0,0,7.744,60.182,14.83,82.094
			c7.084,21.912,20.371,23.968,22.143,31.62c1.772,7.654,7.527,37.605,13.285,38.039c5.756,0.436,1.568-27.398,20.707-36.113
			c19.139-8.718,32.121-6.271,34.635-6.188"/>
		<path fill="none" stroke="#222222" stroke-width="3" stroke-miterlimit="10" d="M346.296,288.722c0,0-7.744,60.182-14.83,82.094
			s-20.371,23.968-22.143,31.62c-1.772,7.654-7.529,37.605-13.285,38.039c-5.759,0.436-1.57-27.398-20.709-36.113
			c-19.14-8.718-32.121-6.271-34.634-6.188"/>
	</g>
	<g>
		<path fill="none" stroke="#222222" stroke-width="3" stroke-miterlimit="10" d="M220.446,428.147
			c-17.35,0-23.58-4.078-37.465-3.41c-13.885,0.666-19.467,37.072-15.01,45.738s32.1,9.83,33.363,0.496
			c1.264-9.332-5.971-21.496-5.971-21.496"/>
		<path fill="none" stroke="#222222" stroke-width="3" stroke-miterlimit="10" d="M220.161,428.147
			c17.351,0,23.58-4.078,37.465-3.41c13.886,0.666,19.467,37.072,15.011,45.738c-4.46,8.666-30.916,11.014-32.181,1.682
			c-1.265-9.334,5.526-22.898,5.526-22.898"/>
	</g>
	<path fill="none" stroke="#222222" stroke-width="3" stroke-miterlimit="10" d="M188.981,443.475c0,0,1.656,8.803,31.18,8.803
		c29.524,0,34.961-8.803,34.961-8.803"/>
	<path fill="none" stroke="#222222" stroke-width="3" stroke-miterlimit="10" d="M182.981,429.405c0,0,14.328,6.396,37.662,6.396
		c23.333,0,37.479-6.396,37.479-6.396"/>
	<path fill="none" stroke="#222222" stroke-width="3" stroke-miterlimit="10" d="M164.7,498.569
		c-1.693-1.887-44.27-23.094-44.27-27.094"/>
	<path fill="none" stroke="#222222" stroke-width="3" stroke-miterlimit="10" d="M124.983,467.325c0,0-8.541-2.441-8.541,6.645
		c0,9.088-1.211,72.693,0,69.361s31.953,39.145,106.971,39.145c75.019,0,111.234-39.145,111.234-39.145
		c-1.213-3.332,0-60.273,0-69.361c0-9.086-8.541-6.645-8.541-6.645"/>
	
		<line fill="none" stroke="#222222" stroke-width="3" stroke-miterlimit="10" x1="326.106" y1="455.334" x2="326.106" y2="475.725"/>
	<path fill="none" stroke="#222222" stroke-width="3" stroke-miterlimit="10" d="M284.391,498.569
		c1.692-1.887,46.271-23.094,46.271-27.094"/>
	<line fill="none" stroke="#222222" stroke-width="3" stroke-miterlimit="10" x1="116.442" y1="543.331" x2="13.431" y2="571.475"/>
	
		<line fill="none" stroke="#222222" stroke-width="3" stroke-miterlimit="10" x1="334.216" y1="543.331" x2="437.228" y2="571.475"/>
</g>
</svg>
