<?xml version="1.0" standalone="no"?>
<!DOCTYPE svg PUBLIC "-//W3C//DTD SVG 20010904//EN"
 "http://www.w3.org/TR/2001/REC-SVG-20010904/DTD/svg10.dtd">
<svg version="1.0" xmlns="http://www.w3.org/2000/svg"
 width="585.000000pt" height="585.000000pt" viewBox="0 0 585.000000 585.000000"
 preserveAspectRatio="xMidYMid meet">
<metadata>
Created by potrace 1.11, written by Peter Selinger 2001-2013
</metadata>
<g transform="translate(0.000000,585.000000) scale(0.100000,-0.100000)"
fill="#000000" stroke="none">
<path d="M2827 5844 c-1 -1 -45 -4 -97 -8 -52 -3 -113 -8 -135 -11 -22 -3 -59
-7 -83 -10 -24 -3 -66 -10 -95 -16 -29 -5 -68 -12 -87 -15 -19 -3 -38 -8 -41
-10 -3 -2 -21 -6 -40 -9 -53 -9 -196 -51 -294 -86 -505 -178 -933 -477 -1287
-899 -21 -25 -41 -50 -45 -55 -234 -308 -404 -639 -499 -970 -33 -114 -86
-358 -98 -455 -20 -152 -27 -477 -12 -625 6 -63 18 -172 21 -185 2 -9 16 -94
21 -125 11 -66 58 -247 94 -355 173 -521 508 -1009 920 -1339 52 -42 97 -78
100 -82 6 -7 171 -118 230 -155 95 -59 290 -158 410 -207 153 -63 414 -143
530 -162 19 -3 42 -8 50 -10 8 -2 35 -7 60 -10 25 -3 63 -8 85 -12 73 -11 301
-26 395 -26 72 1 271 12 310 18 14 2 48 6 75 10 441 54 913 240 1289 507 465
331 820 782 1029 1308 41 103 109 312 121 372 3 13 14 66 25 118 11 52 23 115
26 140 3 25 9 60 11 78 20 126 26 544 10 657 -3 22 -8 63 -12 90 -4 41 -35
213 -49 275 -22 100 -92 330 -121 398 -8 17 -20 47 -28 65 -329 788 -983 1394
-1789 1656 -139 45 -270 78 -377 96 -25 4 -54 9 -65 11 -11 2 -40 7 -65 10
-25 3 -56 7 -70 10 -55 9 -414 24 -423 18z"/>
</g>
</svg>
