<?xml version="1.0" encoding="utf-8"?>
<!-- Generator: Adobe Illustrator 16.0.0, SVG Export Plug-In . SVG Version: 6.00 Build 0)  -->
<!DOCTYPE svg PUBLIC "-//W3C//DTD SVG 1.1//EN" "http://www.w3.org/Graphics/SVG/1.1/DTD/svg11.dtd">
<svg version="1.1" id="Capa_2" xmlns="http://www.w3.org/2000/svg" xmlns:xlink="http://www.w3.org/1999/xlink" x="0px" y="0px"
	 width="451px" height="688.071px" viewBox="0 0 451 688.071" enable-background="new 0 0 451 688.071" xml:space="preserve">
<g>
	<g>
		<path fill="none" stroke="#C0A062" stroke-width="3" stroke-miterlimit="10" d="M239.452,536.637c0,0,2.071-12.57,31.519-13.508
			c29.446-0.938,34.344-1.113,34.344-1.113"/>
		<path fill="none" stroke="#C0A062" stroke-width="3" stroke-miterlimit="10" d="M208.974,536.637c0,0-2.074-12.57-31.518-13.508
			c-29.445-0.938-34.344-1.113-34.344-1.113"/>
	</g>
	<path fill="none" stroke="#C0A062" stroke-width="3" stroke-miterlimit="10" d="M126.481,279.796
		c4.225,11.469,9.657,48.061,16.295,66.392c7.518,20.757,34.402,41.042,53.718,50.096c19.313,9.053,31.384,7.244,31.384,7.244"/>
	<path fill="none" stroke="#C0A062" stroke-width="3" stroke-miterlimit="10" d="M210.528,302.378c0,0,0.576-3.751,3.75-1.442
		c3.174,2.309,5.771,6.349,10.963,7.214c5.194,0.865,10.676-7.271,13.561-7.964c2.886-0.691,5.193,4.013,5.193,4.013"/>
	<path fill="none" stroke="#C0A062" stroke-width="3" stroke-miterlimit="10" d="M201.058,294.3c0,0-1.493,8.368,5.143,11.252
		c6.636,2.885,8.078-1.387,8.078-1.387"/>
	<path fill="none" stroke="#C0A062" stroke-width="3" stroke-miterlimit="10" d="M223.563,312.69c0,0-2.789,5.781-2.041,7.779
		c0.854,2.286,5.199,4.347,9.58,2.174"/>
	<path fill="none" stroke="#C0A062" stroke-width="3" stroke-miterlimit="10" d="M227.878,330.797c0,0-6.941-4.829-14.184-2.112
		c-7.243,2.717-21.728,12.977-24.746,12.977c-3.018,0,11.771,0.524,20.824-0.079c9.053-0.604,18.462,0.904,18.462,0.904"/>
	<path fill="none" stroke="#C0A062" stroke-width="3" stroke-miterlimit="10" d="M227.275,359.467c0,0-17.503,1.787-23.841-4.637
		c-13.747-13.938-14.486-13.169-14.486-13.169"/>
	<path fill="none" stroke="#C0A062" stroke-width="3" stroke-miterlimit="10" d="M201.624,241.47
		c0.904-0.301-9.959-11.769-22.635-11.467c-12.673,0.303-25.047,9.053-25.047,9.053"/>
	<path fill="none" stroke="#C0A062" stroke-width="3" stroke-miterlimit="10" d="M209.772,206.162c0,0-3.871-8.751-31.963-14.184
		c-28.092-5.433-30.447-0.274-36.24,12.072c-2.549,5.432,0,14.183,0,14.183s1.811-16.899,18.409-16.899s24.237,11.468,41.698,11.468
		C213.694,212.802,209.772,206.162,209.772,206.162z"/>
	<path fill="none" stroke="#C0A062" stroke-width="3" stroke-miterlimit="10" d="M204.942,235.733c0,0-11.686-15.085-29.532-15.388
		c-17.847-0.301-21.468,13.581-21.468,13.581"/>
	<path fill="none" stroke="#C0A062" stroke-width="3" stroke-miterlimit="10" d="M172.562,230.822
		c-1.446,1.687-2.322,3.874-2.322,6.269c0,5.334,4.324,9.656,9.656,9.656c5.334,0,9.656-4.322,9.656-9.656
		c0-2.062-0.65-3.968-1.75-5.536c-2.733-0.995-5.718-1.625-8.812-1.552C176.817,230.056,174.655,230.358,172.562,230.822z"/>
	<path fill="none" stroke="#C0A062" stroke-width="3" stroke-miterlimit="10" d="M204.894,213.448c0,0,11.115,10.206,12.322,17.756"
		/>
	<path fill="none" stroke="#C0A062" stroke-width="3" stroke-miterlimit="10" d="M250.574,213.448c0,0-11.114,10.206-12.322,17.756"
		/>
	<path fill="none" stroke="#C0A062" stroke-width="3" stroke-miterlimit="10" d="M252.891,294.3c0,0,1.491,8.368-5.146,11.252
		c-6.636,2.885-8.076-1.387-8.076-1.387"/>
	<path fill="none" stroke="#C0A062" stroke-width="3" stroke-miterlimit="10" d="M227.878,330.797c0,0,6.942-4.829,14.185-2.112
		c7.242,2.717,21.729,12.977,24.748,12.977c3.017,0-11.771,0.524-20.824-0.079c-9.055-0.604-17.504,0.904-17.504,0.904"/>
	<path fill="none" stroke="#C0A062" stroke-width="3" stroke-miterlimit="10" d="M227.521,359.467c0,0,18.463,1.787,24.802-4.637
		c13.745-13.938,14.485-13.169,14.485-13.169"/>
	<path fill="none" stroke="#C0A062" stroke-width="3" stroke-miterlimit="10" d="M254.133,241.47
		c-0.904-0.301,9.96-11.769,22.635-11.467c12.674,0.303,25.047,9.053,25.047,9.053"/>
	<path fill="none" stroke="#C0A062" stroke-width="3" stroke-miterlimit="10" d="M245.984,206.162c0,0,3.869-8.751,31.963-14.184
		c28.092-5.433,30.445-0.274,36.237,12.072c2.551,5.432,0,14.183,0,14.183s-1.811-16.899-18.407-16.899
		c-16.596,0-24.237,11.468-41.696,11.468C242.062,212.802,245.984,206.162,245.984,206.162z"/>
	<path fill="none" stroke="#C0A062" stroke-width="3" stroke-miterlimit="10" d="M250.814,235.733c0,0,11.687-15.085,29.531-15.388
		c17.846-0.301,21.467,13.581,21.467,13.581"/>
	<path fill="none" stroke="#C0A062" stroke-width="3" stroke-miterlimit="10" d="M283.198,230.822
		c1.442,1.687,2.319,3.874,2.319,6.269c0,5.334-4.324,9.656-9.656,9.656c-5.334,0-9.657-4.322-9.657-9.656
		c0-2.062,0.651-3.968,1.752-5.536c2.733-0.995,5.716-1.625,8.812-1.552C278.939,230.056,281.104,230.358,283.198,230.822z"/>
	<path fill="none" stroke="#C0A062" stroke-width="3" stroke-miterlimit="10" d="M189.552,119.652c0,0-26.053,14.851-42.147,44.663
		c-12.175,22.552-23.739,61.362-29.372,77.154c-5.634,15.794-8.048,40.233-2.415,58.594c5.634,18.36,7.714,30.834,2.082,45.318
		c-4.055,10.428-13.63,19.313-13.63,19.313"/>
	<path fill="none" stroke="#C0A062" stroke-width="3" stroke-miterlimit="10" d="M182.813,117.237
		c-1.207,0.403-44.663-2.25-71.219,86.794c-26.559,89.043,0,118.014-2.014,133.707c-2.012,15.691-8.28,21.804-8.28,21.804"/>
	<path fill="none" stroke="#C0A062" stroke-width="3" stroke-miterlimit="10" d="M99.353,420.194c0,0,23.91-21.295,15.861-38.195
		c-8.047-16.898-18.928-19.359-14.484-39.513c2.678-12.141,7.281-16.144,7.281-16.144"/>
	<path fill="none" stroke="#C0A062" stroke-width="3" stroke-miterlimit="10" d="M95.913,415.42c0,0,18.365-16.521,10.318-33.422
		c-8.048-16.899-18.93-19.36-14.485-39.514c2.677-12.141,12.323-27.281,12.323-27.281"/>
	<path fill="none" stroke="#C0A062" stroke-width="3" stroke-miterlimit="10" d="M90.47,470.397c0,0,23.809-22.008,15.762-38.906
		c-8.048-16.9-18.93-19.361-14.485-39.512c2.677-12.143,7.954-20.795,7.954-20.795"/>
	<path fill="none" stroke="#C0A062" stroke-width="3" stroke-miterlimit="10" d="M87.47,465.055c0,0,17.823-16.664,9.776-33.564
		c-8.048-16.898-18.929-19.359-14.485-39.511c2.678-12.144,12.928-26.075,12.928-26.075"/>
	<path fill="none" stroke="#C0A062" stroke-width="3" stroke-miterlimit="10" d="M85.345,525.28c0,0,23.909-21.297,15.862-38.195
		c-8.048-16.9-18.928-19.361-14.485-39.512c2.678-12.143,7.54-21.59,7.54-21.59"/>
	<path fill="none" stroke="#C0A062" stroke-width="3" stroke-miterlimit="10" d="M81.906,520.506c0,0,18.364-16.521,10.315-33.422
		c-8.047-16.9-18.928-19.361-14.484-39.512C80.414,435.43,90.06,420.29,90.06,420.29"/>
	<path fill="none" stroke="#C0A062" stroke-width="3" stroke-miterlimit="10" d="M86.187,564.743c0,0,14.084-11.27,6.035-28.168
		c-8.047-16.9-18.928-19.359-14.484-39.512c2.677-12.141,7.953-20.795,7.953-20.795"/>
	<path fill="none" stroke="#C0A062" stroke-width="3" stroke-miterlimit="10" d="M77.202,564.743c0,0,14.082-11.27,6.035-28.168
		c-8.046-16.9-18.928-19.359-14.483-39.512c2.677-12.141,12.927-26.074,12.927-26.074"/>
	<path fill="none" stroke="#C0A062" stroke-width="3" stroke-miterlimit="10" d="M71.642,628.622c0,0,23.91-21.295,15.863-38.195
		c-8.048-16.896-18.93-19.355-14.486-39.512c2.677-12.141,7.539-21.588,7.539-21.588"/>
	<path fill="none" stroke="#C0A062" stroke-width="3" stroke-miterlimit="10" d="M68.204,623.848c0,0,18.362-16.52,10.316-33.422
		c-8.048-16.898-18.929-19.357-14.486-39.512c2.678-12.141,12.324-27.281,12.324-27.281"/>
	<path fill="none" stroke="#C0A062" stroke-width="3" stroke-miterlimit="10" d="M72.484,668.084c0,0,14.082-11.268,6.036-28.166
		c-8.048-16.898-18.929-19.361-14.486-39.512c2.678-12.145,7.954-20.793,7.954-20.793"/>
	<path fill="none" stroke="#C0A062" stroke-width="3" stroke-miterlimit="10" d="M63.499,668.084c0,0,14.084-11.268,6.037-28.166
		c-8.049-16.898-18.929-19.361-14.486-39.512c2.678-12.145,12.928-26.074,12.928-26.074"/>
	<path fill="none" stroke="#C0A062" stroke-width="3" stroke-miterlimit="10" d="M298.495,143.077
		c13.881,19.945,31.184,82.601,36.817,98.393c5.632,15.794,8.047,40.233,2.411,58.594c-5.632,18.36-7.714,30.834-2.08,45.319
		c4.057,10.427,13.632,19.312,13.632,19.312"/>
	<path fill="none" stroke="#C0A062" stroke-width="3" stroke-miterlimit="10" d="M296.333,129.443
		c1.206,0.402,25.097,5.87,45.417,74.588c26.349,89.104,0,118.014,2.013,133.707c2.014,15.691,8.279,21.804,8.279,21.804"/>
	<path fill="none" stroke="#C0A062" stroke-width="3" stroke-miterlimit="10" d="M353.992,420.194c0,0-23.911-21.295-15.863-38.195
		c8.046-16.898,18.929-19.359,14.485-39.513c-2.68-12.141-7.281-16.144-7.281-16.144"/>
	<path fill="none" stroke="#C0A062" stroke-width="3" stroke-miterlimit="10" d="M357.431,415.42c0,0-18.362-16.521-10.315-33.422
		c8.047-16.899,18.929-19.36,14.483-39.514c-2.678-12.141-12.321-27.281-12.321-27.281"/>
	<path fill="none" stroke="#C0A062" stroke-width="3" stroke-miterlimit="10" d="M362.874,470.397c0,0-23.808-22.008-15.761-38.906
		c8.047-16.9,18.929-19.361,14.483-39.512c-2.678-12.143-7.954-20.795-7.954-20.795"/>
	<path fill="none" stroke="#C0A062" stroke-width="3" stroke-miterlimit="10" d="M365.874,465.055c0,0-17.822-16.664-9.777-33.564
		c8.05-16.898,18.932-19.359,14.486-39.511c-2.678-12.144-12.928-26.075-12.928-26.075"/>
	<path fill="none" stroke="#C0A062" stroke-width="3" stroke-miterlimit="10" d="M367.999,525.28c0,0-23.908-21.297-15.863-38.195
		c8.049-16.9,18.932-19.361,14.486-39.512c-2.677-12.143-7.541-21.59-7.541-21.59"/>
	<path fill="none" stroke="#C0A062" stroke-width="3" stroke-miterlimit="10" d="M371.438,520.506c0,0-18.361-16.521-10.314-33.422
		c8.048-16.9,18.929-19.361,14.485-39.512c-2.68-12.145-12.324-27.283-12.324-27.283"/>
	<path fill="none" stroke="#C0A062" stroke-width="3" stroke-miterlimit="10" d="M367.155,564.743c0,0-14.081-11.27-6.034-28.168
		c8.048-16.9,18.929-19.359,14.485-39.512c-2.68-12.141-7.954-20.795-7.954-20.795"/>
	<path fill="none" stroke="#C0A062" stroke-width="3" stroke-miterlimit="10" d="M376.141,564.743c0,0-14.082-11.27-6.033-28.168
		c8.048-16.9,18.928-19.359,14.483-39.512c-2.678-12.141-12.927-26.074-12.927-26.074"/>
	<path fill="none" stroke="#C0A062" stroke-width="3" stroke-miterlimit="10" d="M381.7,628.622c0,0-23.908-21.295-15.86-38.195
		c8.048-16.896,18.928-19.355,14.485-39.512c-2.678-12.141-7.541-21.588-7.541-21.588"/>
	<path fill="none" stroke="#C0A062" stroke-width="3" stroke-miterlimit="10" d="M385.141,623.848c0,0-18.362-16.52-10.315-33.422
		c8.047-16.898,18.93-19.357,14.484-39.512c-2.678-12.141-12.323-27.281-12.323-27.281"/>
	<path fill="none" stroke="#C0A062" stroke-width="3" stroke-miterlimit="10" d="M380.858,668.084c0,0-14.082-11.268-6.035-28.166
		s18.93-19.361,14.484-39.512c-2.678-12.145-7.951-20.793-7.951-20.793"/>
	<path fill="none" stroke="#C0A062" stroke-width="3" stroke-miterlimit="10" d="M389.845,668.084c0,0-14.084-11.268-6.037-28.166
		c8.05-16.898,18.932-19.361,14.486-39.512c-2.677-12.145-12.928-26.074-12.928-26.074"/>
	<path fill="none" stroke="#C0A062" stroke-width="3" stroke-miterlimit="10" d="M256.042,100.741c0,0-31.684-29.374-76.599-22.131
		c-44.915,7.242-49.341,14.485-49.341,14.485"/>
	<path fill="none" stroke="#C0A062" stroke-width="3" stroke-miterlimit="10" d="M272.139,84.646c0,0-30.271-27.362-72.272-19.717"
		/>
	<path fill="none" stroke="#C0A062" stroke-width="3" stroke-miterlimit="10" d="M256.042,115.227c0,0,2.817-17.302,27.767-18.912
		c24.946-1.608,42.651,4.427,42.651,4.427"/>
	<path fill="none" stroke="#C0A062" stroke-width="3" stroke-miterlimit="10" d="M266.204,92.291
		c1.91-1.206,16.601-11.267,35.608-7.645c19.014,3.621,24.646,11.396,24.646,11.396"/>
	<path fill="none" stroke="#C0A062" stroke-width="3" stroke-miterlimit="10" d="M128.492,96.042c0,0-9.657,17.172-16.497,25.622
		c-6.84,8.449-24.143,31.788-18.91,49.09c5.229,17.303,17.218,19.074,17.218,19.074"/>
	<path fill="none" stroke="#C0A062" stroke-width="3" stroke-miterlimit="10" d="M99.353,228.037c0,0-8.994-1.595-8.637-24.006
		c0.355-22.412,2.877-31.703,2.877-31.703"/>
	<path fill="none" stroke="#C0A062" stroke-width="3" stroke-miterlimit="10" d="M213.694,115.227c0,0-15.189-17.302-41.746-16.498
		c-26.557,0.807-34.604-0.026-34.604-0.026"/>
	<path fill="none" stroke="#C0A062" stroke-width="3" stroke-miterlimit="10" d="M150.144,359.542c0,0,0,73.869,0,86.342"/>
	<path fill="none" stroke="#C0A062" stroke-width="3" stroke-miterlimit="10" d="M146.812,356.649c0,0-2.074,27.361-6.374,41.443
		c-4.301,14.084,6.011,32.592,9.706,53.113c3.697,20.52-6.766,48.285-14.812,71.623c-8.047,23.338,0,45.062,0,45.062
		s12.596,23.617,11.48,44.465c-1.117,20.846-15.154,55.773-12.662,66.375"/>
	<path fill="none" stroke="#C0A062" stroke-width="3" stroke-miterlimit="10" d="M95.028,228.037c0,0-1.947,42.036-17.235,80.496
		c-15.291,38.459-26.557,72.659-22.532,104.247c0,0-2.812,29.391-9.149,39.809c-6.337,10.42-8.013,16.57-8.013,16.57"/>
	<path fill="none" stroke="#C0A062" stroke-width="3" stroke-miterlimit="10" d="M329.881,100.741c0,0,31.698,51.101,32.749,65.586
		c1.049,14.485,7.32,46.313-9.094,72.046"/>
	<path fill="none" stroke="#C0A062" stroke-width="3" stroke-miterlimit="10" d="M135.68,319.516c0,0-14.457,0.79-18.095-12.72"/>
	<path fill="none" stroke="#C0A062" stroke-width="3" stroke-miterlimit="10" d="M126.481,225.387
		c-2.738,32.682,10.26,42.942,0,54.409c-10.26,11.469-9.611,24.471-9.611,24.471"/>
	<path fill="none" stroke="#C0A062" stroke-width="3" stroke-miterlimit="10" d="M128.492,300.388c0,0-4.271,3.412-10.019-6.408"/>
	<path fill="none" stroke="#C0A062" stroke-width="3" stroke-miterlimit="10" d="M326.854,279.796
		c-4.225,11.469-9.656,48.061-16.295,66.392c-7.518,20.757-34.404,41.042-53.718,50.096c-19.313,9.053-31.385,7.244-31.385,7.244"/>
	<path fill="none" stroke="#C0A062" stroke-width="3" stroke-miterlimit="10" d="M303.189,359.542c0,0,0,73.869,0,86.342"/>
	<path fill="none" stroke="#C0A062" stroke-width="3" stroke-miterlimit="10" d="M306.524,356.649c0,0,2.072,27.361,6.374,41.443
		c4.3,14.084-6.014,32.592-9.709,53.113c-3.694,20.52,6.768,48.285,14.812,71.623c8.047,23.338,0,45.062,0,45.062
		s-23.124,32.27-21.671,53.312c1.45,21.049,12.867,34.342,12.592,52.137"/>
	<path fill="none" stroke="#C0A062" stroke-width="3" stroke-miterlimit="10" d="M317.656,319.516c0,0,14.456,0.79,18.094-12.72"/>
	<path fill="none" stroke="#C0A062" stroke-width="3" stroke-miterlimit="10" d="M326.854,225.387
		c2.737,32.682-10.26,42.942,0,54.409c10.262,11.469,9.611,24.471,9.611,24.471"/>
	<path fill="none" stroke="#C0A062" stroke-width="3" stroke-miterlimit="10" d="M324.843,300.388c0,0,4.271,3.412,10.021-6.408"/>
	<path fill="none" stroke="#C0A062" stroke-width="3" stroke-miterlimit="10" d="M269.323,74.114
		c0.805-2.344-20.103-25.278-58.939-20.854c-38.838,4.427-69.119,31.386-69.119,31.386"/>
	<path fill="none" stroke="#C0A062" stroke-width="3" stroke-miterlimit="10" d="M305.535,77.461c0,0-16.01-15.372-38.727-18.164
		c-22.722-2.792-22.722-2.792-22.722-2.792"/>
	<path fill="none" stroke="#C0A062" stroke-width="3" stroke-miterlimit="10" d="M282.602,77.461
		c1.207-0.46,25.831-4.333,41.282,12.492"/>
	<path fill="none" stroke="#C0A062" stroke-width="3" stroke-miterlimit="10" d="M163.499,66.984c0,0,4.93-9.221,15.944-14.289
		c11.015-5.066,11.323-6.274,22.233-8.285c10.911-2.013,11.19,0,11.19,0"/>
	<path fill="none" stroke="#C0A062" stroke-width="3" stroke-miterlimit="10" d="M196.091,55.25
		c1.289,0.355,14.873-15.269,29.366-14.462c14.493,0.805,16.605,2.727,16.605,2.727"/>
	<path fill="none" stroke="#C0A062" stroke-width="3" stroke-miterlimit="10" d="M227.291,52.695
		c1.325,0.447,8.232-11.282,23.523-9.181c15.289,2.102,15.483,4.828,16.394,4.471"/>
	<path fill="none" stroke="#C0A062" stroke-width="3" stroke-miterlimit="10" d="M296.333,59.297
		c0.353-0.403-2.922-10.059-18.386-9.657c-15.465,0.402-28.895,7.475-28.895,7.475"/>
	<path fill="none" stroke="#C0A062" stroke-width="3" stroke-miterlimit="10" d="M282.602,63.377c0,0,13.731-6.872,29.774,3.607
		c11.6,7.574,8.049,7.13,8.049,7.13"/>
	<path fill="none" stroke="#C0A062" stroke-width="3" stroke-miterlimit="10" d="M332.093,87.061
		c-8.209-18.69-28.851-12.946-28.851-12.946"/>
	<path fill="none" stroke="#C0A062" stroke-width="3" stroke-miterlimit="10" d="M185.863,49.628c0,0-17.535-1.548-26.79,6.877
		c-9.256,8.425-8.852,10.479-8.852,10.479l-3.41,10.477"/>
	<path fill="none" stroke="#C0A062" stroke-width="3" stroke-miterlimit="10" d="M130.491,89.953c0,0-2.805-15.932,6.854-21.282
		c9.656-5.35,14.813-5.088,14.813-5.088"/>
	<path fill="none" stroke="#C0A062" stroke-width="3" stroke-miterlimit="10" d="M116.697,115.227c0,0-6.31-16.823,3.748-26.126
		c10.058-9.302,8.047-7.674,8.047-7.674"/>
	<path fill="none" stroke="#C0A062" stroke-width="3" stroke-miterlimit="10" d="M104.069,129.443c0,0-3.117-14.025,4.042-22.479
		c7.159-8.454,7.159-8.453,7.159-8.453"/>
	<path fill="none" stroke="#C0A062" stroke-width="3" stroke-miterlimit="10" d="M322.845,87.061
		c1.604-0.806,11.262-3.362,16.49,8.981c5.231,12.344,5.231,12.344,5.231,12.344"/>
	<path fill="none" stroke="#C0A062" stroke-width="3" stroke-miterlimit="10" d="M334.862,106.965c0,0,10.67-0.188,14.413,8.262
		c3.737,8.45,3.737,8.45,3.737,8.45"/>
	<path fill="none" stroke="#C0A062" stroke-width="3" stroke-miterlimit="10" d="M343.392,123.677
		c-0.062-0.107,9.625-3.758,13.648,5.767c4.023,9.523,2.57,13.492,2.57,13.492"/>
	<path fill="none" stroke="#C0A062" stroke-width="3" stroke-miterlimit="10" d="M353.015,141.583
		c-0.076-0.156,5.949-2.213,9.615,7.04c3.664,9.255,0.281,20.934,0.281,20.934"/>
	<path fill="none" stroke="#C0A062" stroke-width="3" stroke-miterlimit="10" d="M214.209,376.149c0,0,1.599-2.881,13.066-2.881
		c11.467,0,16.959,2.881,16.959,2.881"/>
	<path fill="none" stroke="#C0A062" stroke-width="3" stroke-miterlimit="10" d="M276.314,123.677c0,0,7.215-7.477,26.108-9.7
		c18.896-2.222,24.612-6.863,24.612-6.863"/>
	<path fill="none" stroke="#C0A062" stroke-width="3" stroke-miterlimit="10" d="M347.278,204.352
		c3.01-0.257,8.225-48.98-3.889-66.715c-12.111-17.734-13.73-22.241-13.73-22.241"/>
	<line fill="none" stroke="#C0A062" stroke-width="3" stroke-miterlimit="10" x1="152.158" y1="126.87" x2="131.756" y2="104.39"/>
	<path fill="none" stroke="#C0A062" stroke-width="3" stroke-miterlimit="10" d="M118.474,172.328c0,0-10.527-13.336-1.612-34.691
		c8.917-21.354,11.631-27.462,11.631-27.462"/>
	<line fill="none" stroke="#C0A062" stroke-width="3" stroke-miterlimit="10" x1="135.68" y1="143.077" x2="131.756" y2="115.396"/>
	<path fill="none" stroke="#C0A062" stroke-width="3" stroke-miterlimit="10" d="M320.938,153.787c0,0-1.706-15.224,1.907-34.135"/>
	<path fill="none" stroke="#C0A062" stroke-width="3" stroke-miterlimit="10" d="M128.492,319.525c0,0,10.146,41.981,3.264,61.951
		c-6.884,19.972-9.098,42.589-5.274,71.112c3.822,28.523-7.597,70.697-13.203,94.875c-5.607,24.178-13.018,28.355-2.976,58.857
		s6.559,48.34,6.559,48.34"/>
	<path fill="none" stroke="#C0A062" stroke-width="3" stroke-miterlimit="10" d="M313.919,335.171c0,0,21.705,60.604,18.174,85.621
		c-3.529,25.016-9.54,50.67,1.612,74.055c11.151,23.389,12.071,62.262,6.634,79.486c-5.438,17.227-18.195,20.975-10.458,50.787"/>
	<line fill="none" stroke="#C0A062" stroke-width="3" stroke-miterlimit="10" x1="59.829" y1="465.055" x2="16.845" y2="474.657"/>
	<path fill="none" stroke="#C0A062" stroke-width="3" stroke-miterlimit="10" d="M69.283,414.532
		c-5.248,3.17-4.927,44.258-13.688,64.453c-8.76,20.191-24.15,56.861-23.245,81.98c0.905,25.121-4.602,25.072-0.039,50.445
		c4.564,25.371-1.832,55.727-1.832,55.727"/>
	<path fill="none" stroke="#C0A062" stroke-width="3" stroke-miterlimit="10" d="M359.867,228.037c0,0,1.946,42.036,17.233,80.496
		c15.291,38.459,26.559,72.659,22.533,104.247c0,0,2.812,29.391,9.148,39.809c6.338,10.42,8.014,16.57,8.014,16.57"/>
	
		<line fill="none" stroke="#C0A062" stroke-width="3" stroke-miterlimit="10" x1="395.067" y1="465.055" x2="442.416" y2="475.631"/>
	<path fill="none" stroke="#C0A062" stroke-width="3" stroke-miterlimit="10" d="M385.611,414.532
		c5.249,3.17,4.929,44.258,13.688,64.453c8.76,20.191,24.15,56.861,23.245,81.98c-0.905,25.121,4.603,25.072,0.038,50.445
		c-4.563,25.371,1.833,55.727,1.833,55.727"/>
	<path fill="none" stroke="#C0A062" stroke-width="3" stroke-miterlimit="10" d="M312.356,505.29c0,0-10.939,140.021-86.903,168.85"
		/>
	<path fill="none" stroke="#C0A062" stroke-width="3" stroke-miterlimit="10" d="M138.778,512.833
		c0,0,10.841,133.746,86.129,161.307"/>
</g>
</svg>
