<?xml version="1.0" encoding="utf-8"?>
<!-- Generator: Adobe Illustrator 16.0.0, SVG Export Plug-In . SVG Version: 6.00 Build 0)  -->
<!DOCTYPE svg PUBLIC "-//W3C//DTD SVG 1.1//EN" "http://www.w3.org/Graphics/SVG/1.1/DTD/svg11.dtd">
<svg version="1.1" id="Capa_2" xmlns="http://www.w3.org/2000/svg" xmlns:xlink="http://www.w3.org/1999/xlink" x="0px" y="0px"
	 width="451px" height="688.071px" viewBox="0 0 451 688.071" enable-background="new 0 0 451 688.071" xml:space="preserve">
<g>
	
		<line fill="none" stroke="#C0A062" stroke-width="3" stroke-miterlimit="10" x1="318.502" y1="435.319" x2="318.502" y2="539.883"/>
	
		<line fill="none" stroke="#C0A062" stroke-width="3" stroke-miterlimit="10" x1="132.545" y1="435.319" x2="132.545" y2="539.883"/>
	<path fill="none" stroke="#C0A062" stroke-width="3" stroke-miterlimit="10" d="M132.658,506.348c0,0-32.189,67.705,91.975,67.705
		c124.168,0,94.312-67.705,94.312-67.705"/>
	<path fill="none" stroke="#C0A062" stroke-width="3" stroke-miterlimit="10" d="M340.116,278.62
		c0.433-12.423-9.307-47.289-9.307-67.339c0-20.051-9.306-43.541-9.306-43.541s-18.55-10.854-45.904-7.607
		c0,0,37.043-10.702-15.955-41.974"/>
	<path fill="none" stroke="#C0A062" stroke-width="3" stroke-miterlimit="10" d="M346.538,269.534
		c5.373-64.477,19.101-186.647-115.445-195.413"/>
	<path fill="none" stroke="#C0A062" stroke-width="3" stroke-miterlimit="10" d="M106.219,269.534
		c-5.373-64.477-20.855-195.413,120.099-195.413"/>
	<path fill="none" stroke="#C0A062" stroke-width="3" stroke-miterlimit="10" d="M110.946,278.62
		c-0.434-12.423,9.306-47.289,9.306-67.339c0-20.051,9.307-43.541,9.307-43.541s47.061-8.409,96.785-7.755
		c13.777,0.181,69.094-2.497,49.256-24.723c-10.586-11.86-15.953-15.128-15.953-15.128"/>
	<path fill="none" stroke="#C0A062" stroke-width="3" stroke-miterlimit="10" d="M340.086,279.455c0,0-0.219,49.405-4.096,83.62
		s-4.088,48.016-23.457,83.812c-18.854,34.846-50.645,58.166-86.79,58.166"/>
	<path fill="none" stroke="#C0A062" stroke-width="3" stroke-miterlimit="10" d="M336.65,356.973c0,0,9.116,7.4,20.723-12.646
		c11.605-20.047,7.914-25.095,11.078-39.188c3.166-14.094,6.521-38.6-6.387-44.038c-6.978-2.939-21.966,14.354-21.966,14.354"/>
	<path fill="none" stroke="#C0A062" stroke-width="3" stroke-miterlimit="10" d="M365.639,268.01c0,0-13.717,9.847-17.938,20.046
		c-4.22,10.199-6.328,8.089-4.922,15.826c1.405,7.737-0.435,16.53-0.435,16.53"/>
	<path fill="none" stroke="#C0A062" stroke-width="3" stroke-miterlimit="10" d="M351.219,333.425c0,0,0-5.276,4.572-10.199
		c4.572-4.924,4.924-17.233,4.924-29.015c0-11.782-2.705-19.771-2.705-19.771"/>
	<path fill="none" stroke="#C0A062" stroke-width="3" stroke-miterlimit="10" d="M114.35,356.973c0,0-9.117,7.4-20.723-12.646
		c-11.605-20.047-7.912-25.095-11.078-39.188c-3.165-14.094-6.521-38.6,6.387-44.038c6.979-2.939,21.967,14.354,21.967,14.354"/>
	<path fill="none" stroke="#C0A062" stroke-width="3" stroke-miterlimit="10" d="M85.363,268.01c0,0,13.715,9.847,17.936,20.046
		c4.221,10.199,6.33,8.089,4.924,15.826c-1.406,7.737,0.434,16.53,0.434,16.53"/>
	<path fill="none" stroke="#C0A062" stroke-width="3" stroke-miterlimit="10" d="M99.781,333.425c0,0,0-5.276-4.571-10.199
		c-4.571-4.924-4.925-17.233-4.925-29.015c0-11.782,2.705-19.771,2.705-19.771"/>
	<path fill="none" stroke="#C0A062" stroke-width="3" stroke-miterlimit="10" d="M328.71,265.548c0,0-2.812-21.453-28.487-24.267
		c-25.672-2.814-41.146,5.979-43.258,11.604c-2.111,5.627,11.605,8.44,22.156,5.627S310.07,253.239,328.71,265.548z"/>
	<path fill="none" stroke="#C0A062" stroke-width="3" stroke-miterlimit="10" d="M261.891,276.45c0,0,14.903-11.253,30.84-6.682
		c15.934,4.572,17.692,13.012,17.692,13.012s-0.353-2.431-14.069-2.271c-13.715,0.16-16.879-1.83-19.691-1.89"/>
	<path fill="none" stroke="#C0A062" stroke-width="3" stroke-miterlimit="10" d="M254.15,274.439c0,0,9.146-14.565,38.578-8.891
		c12.77,2.461,19.805,13.072,19.805,13.072"/>
	<path fill="none" stroke="#C0A062" stroke-width="3" stroke-miterlimit="10" d="M294.247,273.74c0-1.336-0.287-2.604-0.792-3.752
		c-0.243-0.073-0.479-0.148-0.727-0.219c-5.762-1.653-11.383-1.233-16.219-0.028c-0.578,1.214-0.91,2.566-0.91,4
		c0,1.799,0.517,3.473,1.399,4.897c2.358,0.171,5.241,1.545,14.367,1.83C293.137,278.77,294.247,276.386,294.247,273.74z"/>
	<path fill="none" stroke="#C0A062" stroke-width="3" stroke-miterlimit="10" d="M258.217,256.667c0,0-13.561,6.618-16.374,17.773
		c-2.813,11.155,0,13.617,0,13.617"/>
	<path fill="none" stroke="#C0A062" stroke-width="3" stroke-miterlimit="10" d="M122.29,265.548c0,0,2.813-21.453,28.487-24.267
		c25.672-2.814,41.147,5.979,43.258,11.604c2.11,5.627-11.605,8.44-22.156,5.627C161.328,255.7,140.929,253.239,122.29,265.548z"/>
	<path fill="none" stroke="#C0A062" stroke-width="3" stroke-miterlimit="10" d="M189.11,276.45c0,0-14.904-11.253-30.841-6.682
		c-15.934,4.572-17.692,13.012-17.692,13.012s0.352-2.431,14.068-2.271c13.716,0.16,16.881-1.83,19.693-1.89"/>
	<path fill="none" stroke="#C0A062" stroke-width="3" stroke-miterlimit="10" d="M196.849,274.439c0,0-9.146-14.565-38.579-8.891
		c-12.768,2.461-19.803,13.072-19.803,13.072"/>
	<path fill="none" stroke="#C0A062" stroke-width="3" stroke-miterlimit="10" d="M156.752,273.74c0-1.336,0.288-2.604,0.793-3.752
		c0.243-0.073,0.478-0.148,0.725-0.219c5.763-1.653,11.385-1.233,16.22-0.028c0.578,1.214,0.911,2.566,0.911,4
		c0,1.799-0.517,3.473-1.401,4.897c-2.357,0.171-5.24,1.545-14.367,1.83C157.862,278.77,156.752,276.386,156.752,273.74z"/>
	<path fill="none" stroke="#C0A062" stroke-width="3" stroke-miterlimit="10" d="M192.782,256.667c0,0,13.562,6.618,16.375,17.773
		c2.814,11.155,0,13.617,0,13.617"/>
	<path fill="none" stroke="#C0A062" stroke-width="3" stroke-miterlimit="10" d="M254.15,320.412c0,0,11.257,13.012,9.496,22.156
		c-1.758,9.144-10.195,13.364-14.24,13.364"/>
	<path fill="none" stroke="#C0A062" stroke-width="3" stroke-miterlimit="10" d="M196.849,320.412c0,0-11.256,13.012-9.496,22.156
		c1.758,9.144,10.196,13.364,14.241,13.364"/>
	<path fill="none" stroke="#C0A062" stroke-width="3" stroke-miterlimit="10" d="M250.118,349.25c-1.056,0-4.925-7.385-11.099-1.406
		c-3.707,3.589-6.062,8.089-13.872,8.089c-13.013,0-11.605-9.664-18.288-9.658c-4.928,0.004-5.979,4.901-5.979,4.901"/>
	<path fill="none" stroke="#C0A062" stroke-width="3" stroke-miterlimit="10" d="M183.932,403.084"/>
	<path fill="none" stroke="#C0A062" stroke-width="3" stroke-miterlimit="10" d="M225.67,392.983c0,0,13.467-7.229,15.961-5.422
		c2.492,1.807,25.438,15.814,25.438,15.814s-6.484,2.258-16.959,0c-10.476-2.26-15.461,1.557-24.439,1.004"/>
	<path fill="none" stroke="#C0A062" stroke-width="3" stroke-miterlimit="10" d="M225.67,425.817c0,0,6.484-0.514,16.957,1.021
		c10.477,1.533,15.963-3.068,17.459-11.252s4.994-11.725,4.994-11.725"/>
	<path fill="none" stroke="#C0A062" stroke-width="3" stroke-miterlimit="10" d="M225.33,392.983c0,0-13.467-7.229-15.961-5.422
		c-2.494,1.807-25.438,15.814-25.438,15.814s6.482,2.258,16.957,0c10.477-2.26,15.465,1.557,24.441,1.004"/>
	<path fill="none" stroke="#C0A062" stroke-width="3" stroke-miterlimit="10" d="M225.33,425.817c0,0-6.484-0.514-16.957,1.021
		c-10.475,1.533-15.963-3.068-17.459-11.252s-4.995-11.725-4.995-11.725"/>
	<path fill="none" stroke="#C0A062" stroke-width="3" stroke-miterlimit="10" d="M318.893,505.249c0,0,25.99,16.621,7.457,45.797
		c-18.53,29.176-59.252,64.547-79.207,101.176c-13.092,24.027-16.05,31.852-16.05,31.852"/>
	<path fill="none" stroke="#C0A062" stroke-width="3" stroke-miterlimit="10" d="M328.71,490.385c0,0,0.003,15.078,2.062,29.336"/>
	<path fill="none" stroke="#C0A062" stroke-width="3" stroke-miterlimit="10" d="M318.893,471.432c0,0,7.656,1.715,16.13,6.375
		c8.473,4.662,18.287,17.326,29.2,41.914c9.803,22.082,45.771,106.5,45.771,106.5s-109.449-29.102-123.776-13.332
		c-43.911,48.332-47.725,68.389-47.725,68.389"/>
	
		<line fill="none" stroke="#C0A062" stroke-width="3" stroke-miterlimit="10" x1="361.715" y1="515.221" x2="445.818" y2="534.471"/>
	<path fill="none" stroke="#C0A062" stroke-width="3" stroke-miterlimit="10" d="M131.556,471.432c0,0-7.656,1.715-16.129,6.375
		c-8.474,4.662-18.288,17.326-29.201,41.914c-9.802,22.082-45.771,106.5-45.771,106.5s108.771-28.459,123.776-13.332
		c39.015,39.332,48.45,68.389,48.45,68.389"/>
	<line fill="none" stroke="#C0A062" stroke-width="3" stroke-miterlimit="10" x1="88.733" y1="515.221" x2="4.63" y2="534.471"/>
	<path fill="none" stroke="#C0A062" stroke-width="3" stroke-miterlimit="10" d="M131.495,505.249c0,0-25.99,16.621-7.458,45.797
		c18.532,29.176,59.253,64.547,79.209,101.176c13.09,24.027,16.049,31.852,16.049,31.852"/>
	<path fill="none" stroke="#C0A062" stroke-width="3" stroke-miterlimit="10" d="M121.678,490.385c0,0-0.003,15.078-2.062,29.336"/>
	<path fill="none" stroke="#C0A062" stroke-width="3" stroke-miterlimit="10" d="M254.15,661.221c0,0,16.106-8,26.888-8
		c10.78,0,15.627,8,15.627,8S289.484,656.221,254.15,661.221z"/>
	<path fill="none" stroke="#C0A062" stroke-width="3" stroke-miterlimit="10" d="M172.485,643.553c0,0-16.075-0.666-7.704,13.668
		c8.371,14.332,22.571,6.332,21.138,0C184.486,650.887,182.485,646.887,172.485,643.553z"/>
	<line fill="none" stroke="#C0A062" stroke-width="3" stroke-miterlimit="10" x1="132.498" y1="608.965" x2="145.234" y2="673.09"/>
	<line fill="none" stroke="#C0A062" stroke-width="3" stroke-miterlimit="10" x1="72.928" y1="618.596" x2="61.644" y2="673.09"/>
	<line fill="none" stroke="#C0A062" stroke-width="3" stroke-miterlimit="10" x1="336.65" y1="610.868" x2="330.771" y2="673.09"/>
	
		<line fill="none" stroke="#C0A062" stroke-width="3" stroke-miterlimit="10" x1="383.766" y1="619.862" x2="403.766" y2="669.149"/>
	<path fill="none" stroke="#C0A062" stroke-width="3" stroke-miterlimit="10" d="M340.65,276.848c0,0-6.165,10.039-10.91,73.873
		s-46.826,82.223-46.826,82.223s-0.43-17.391,0-29.857c0.429-12.469-33.51-42.777-33.51-42.777s-10.912-6.316-24.074,3.578"/>
	<path fill="none" stroke="#C0A062" stroke-width="3" stroke-miterlimit="10" d="M225.33,382.604c0,0,9.59-6.846,21.039,1.053
		s24.781,12.961,25.449,19.43c0.666,6.469,0.297,39.762,0.297,39.762s-41.022,21.373-31.523,8.039
		c8.891-12.479,9.526-23.754,9.526-23.754"/>
	<path fill="none" stroke="#C0A062" stroke-width="3" stroke-miterlimit="10" d="M111.562,279.455c0,0,0.219,49.405,4.096,83.62
		c3.877,34.215,4.088,48.016,23.457,83.812c18.854,34.846,50.644,58.166,86.79,58.166"/>
	<path fill="none" stroke="#C0A062" stroke-width="3" stroke-miterlimit="10" d="M225.33,363.885
		c-11.155-11.668-23.086-3.577-23.086-3.577s-33.938,30.31-33.51,42.776c0.428,12.469,0,29.857,0,29.857
		s-42.08-18.389-46.826-82.223c-4.745-63.833-10.91-73.872-10.91-73.872"/>
	<path fill="none" stroke="#C0A062" stroke-width="3" stroke-miterlimit="10" d="M226.318,382.604c0,0-9.59-6.846-21.04,1.053
		c-11.449,7.898-24.782,12.961-25.449,19.43s-0.297,39.762-0.297,39.762s41.022,21.373,31.523,8.039
		c-8.891-12.479-9.526-23.754-9.526-23.754"/>
</g>
</svg>
